<?xml version="1.0" encoding="UTF-8" standalone="no"?>
<!-- Created with Inkscape (http://www.inkscape.org/) -->

<svg
   version="1.1"
   id="svg1"
   width="224"
   height="224"
   viewBox="0 0 224 224"
   sodipodi:docname="interplanetary-accelerator.svg"
   inkscape:version="1.3 (0e150ed6c4, 2023-07-21)"
   xmlns:inkscape="http://www.inkscape.org/namespaces/inkscape"
   xmlns:sodipodi="http://sodipodi.sourceforge.net/DTD/sodipodi-0.dtd"
   xmlns="http://www.w3.org/2000/svg"
   xmlns:svg="http://www.w3.org/2000/svg">
  <defs
     id="defs1" />
  <sodipodi:namedview
     id="namedview1"
     pagecolor="#505050"
     bordercolor="#ffffff"
     borderopacity="1"
     inkscape:showpageshadow="0"
     inkscape:pageopacity="0"
     inkscape:pagecheckerboard="1"
     inkscape:deskcolor="#505050"
     showgrid="true"
     inkscape:zoom="1.4142136"
     inkscape:cx="374.76659"
     inkscape:cy="253.49778"
     inkscape:window-width="1920"
     inkscape:window-height="991"
     inkscape:window-x="-9"
     inkscape:window-y="-9"
     inkscape:window-maximized="1"
     inkscape:current-layer="layer1">
    <inkscape:grid
       id="grid1"
       units="px"
       originx="0"
       originy="0"
       spacingx="0.5"
       spacingy="0.5"
       empcolor="#0099e5"
       empopacity="0.30196078"
       color="#0099e5"
       opacity="0.14901961"
       empspacing="8"
       dotted="false"
       gridanglex="30"
       gridanglez="30"
       visible="true"
       snapvisiblegridlinesonly="false" />
  </sodipodi:namedview>
  <g
     inkscape:groupmode="layer"
     id="layer1"
     inkscape:label="main"
     style="display:inline">
    <g
       inkscape:groupmode="layer"
       id="layer5"
       inkscape:label="highlight"
       inkscape:highlight-color="#eab678">
      <g
         inkscape:groupmode="layer"
         id="layer8"
         inkscape:label="highlightDark"
         style="display:inline;fill:#d4816b;fill-opacity:1">
        <path
           style="display:inline;fill:#d4816b;fill-opacity:1"
           d="m 135,179 -10,10 H 99 L 89,179 h 15 l 8,8 8,-8 z"
           id="path29-3" />
        <path
           style="display:inline;fill:#d4816b;fill-opacity:1"
           d="m 199,213 h -9 l -6,-6 h 9 z"
           id="path30-87" />
        <path
           style="display:inline;fill:#d4816b;fill-opacity:1"
           d="m 170,213 h -9 l 6,-6 h 9 z"
           id="path31-49" />
        <path
           style="display:inline;fill:#d4816b;fill-opacity:1"
           d="m 63,213 h -9 l -6,-6 h 9 z"
           id="path30-1-8" />
        <path
           style="display:inline;fill:#d4816b;fill-opacity:1"
           d="m 34,213 h -9 l 6,-6 h 9 z"
           id="path31-4-6" />
        <path
           style="display:inline;fill:#d4816b;fill-opacity:1"
           d="m 11,199 v -9 l 6,-6 v 9 z"
           id="path30-8-6" />
        <path
           style="display:inline;fill:#d4816b;fill-opacity:1"
           d="m 11,170 v -9 l 6,6 v 9 z"
           id="path31-0-5" />
        <path
           style="display:inline;fill:#d4816b;fill-opacity:1"
           d="m 11,63 v -9 l 6,-6 v 9 z"
           id="path30-1-4-8" />
        <path
           style="display:inline;fill:#d4816b;fill-opacity:1"
           d="m 11,34 v -9 l 6,6 v 9 z"
           id="path31-4-7-2" />
        <path
           style="display:inline;fill:#d4816b;fill-opacity:1"
           d="m 144,170 h -10 l -11,-11 h 10 z"
           id="path32-2" />
        <path
           style="display:inline;fill:#d4816b;fill-opacity:1"
           d="M 101,159 90,170 H 80 l 11,-11 z"
           id="path33-15" />
        <path
           style="display:inline;fill:#d4816b;fill-opacity:1"
           d="m 116,170 h -8 l 4,-4 z"
           id="path34-1" />
        <path
           style="display:inline;fill:#d4816b;fill-opacity:1"
           d="m 54,144 v -10 l 11,-11 v 10 z"
           id="path32-8-4" />
        <path
           style="display:inline;fill:#d4816b;fill-opacity:1"
           d="M 65,101 54,90 V 80 l 11,11 z"
           id="path33-1-9" />
        <path
           style="display:inline;fill:#d4816b;fill-opacity:1"
           d="m 54,116 v -8 l 4,4 z"
           id="path34-0-7" />
        <rect
           style="display:inline;fill:#d4816b;fill-opacity:1"
           id="rect34-9"
           width="26"
           height="8"
           x="-125"
           y="-30"
           transform="scale(-1)" />
        <rect
           style="display:inline;fill:#d4816b;fill-opacity:1"
           id="rect35-7"
           width="8"
           height="26"
           x="-202"
           y="-125"
           transform="scale(-1)" />
        <rect
           style="display:inline;fill:#d4816b;fill-opacity:1"
           id="rect36-6"
           width="36"
           height="5"
           x="-130"
           y="-224"
           transform="scale(-1)" />
        <rect
           style="display:inline;fill:#d4816b;fill-opacity:1"
           id="rect37-3"
           width="26"
           height="6"
           x="-125"
           y="-213"
           transform="scale(-1)" />
        <rect
           style="display:inline;fill:#d4816b;fill-opacity:1"
           id="rect38-2"
           width="6"
           height="26"
           x="-17"
           y="-125"
           transform="scale(-1)" />
        <rect
           style="display:inline;fill:#d4816b;fill-opacity:1"
           id="rect39-3"
           width="5"
           height="36.5"
           x="-5"
           y="-130"
           transform="scale(-1)" />
        <path
           style="display:inline;fill:#d4816b;fill-opacity:1"
           d="m 150,103 v 18 l -9,-9 z"
           id="path39-8" />
        <path
           style="display:inline;fill:#d4816b;fill-opacity:1"
           d="m 121,74 -9,9 -9,-9 z"
           id="path40-1" />
        <path
           style="display:inline;fill:#d4816b;fill-opacity:1"
           d="m 45,120 v 15 L 35,125 V 99 L 45,89 v 15 l -8,8 z"
           id="path41-4" />
      </g>
      <g
         inkscape:groupmode="layer"
         id="layer7"
         inkscape:label="highlightMid"
         style="display:inline">
        <rect
           style="fill:#eab678;fill-opacity:1"
           id="rect41"
           width="26"
           height="5"
           x="99"
           y="17" />
        <rect
           style="fill:#eab678;fill-opacity:1"
           id="rect42"
           width="26"
           height="5"
           x="99"
           y="30" />
        <rect
           style="fill:#eab678;fill-opacity:1;stroke-width:1.18921"
           id="rect43"
           width="10"
           height="12.727922"
           x="134"
           y="63.63961"
           transform="matrix(1,0,-0.70710678,0.70710678,0,0)" />
        <rect
           style="display:inline;fill:#eab678;fill-opacity:1;stroke-width:1.18921"
           id="rect43-8"
           width="10"
           height="12.727922"
           x="80"
           y="63.63961"
           transform="matrix(1,0,0.70710678,0.70710678,0,0)" />
        <rect
           style="display:inline;fill:#eab678;fill-opacity:1;stroke-width:1.18921"
           id="rect43-1"
           width="10"
           height="12.727922"
           x="-90"
           y="-253.14423"
           transform="matrix(1,0,-0.70710678,-0.70710678,0,0)" />
        <rect
           style="display:inline;fill:#eab678;fill-opacity:1;stroke-width:1.18921"
           id="rect43-8-1"
           width="10"
           height="12.727922"
           x="304"
           y="-253.14423"
           transform="matrix(1,0,0.70710678,-0.70710678,0,0)" />
        <rect
           style="display:inline;fill:#eab678;fill-opacity:1;stroke-width:1.18921"
           id="rect43-9"
           width="10"
           height="12.727922"
           x="-90"
           y="-253.14423"
           transform="matrix(0,1,-0.70710678,-0.70710678,0,0)" />
        <rect
           style="display:inline;fill:#eab678;fill-opacity:1;stroke-width:1.18921"
           id="rect43-8-0"
           width="10"
           height="12.727922"
           x="304"
           y="-253.14423"
           transform="matrix(0,1,-0.70710678,0.70710678,0,0)" />
        <rect
           style="display:inline;fill:#eab678;fill-opacity:1;stroke-width:1.18921"
           id="rect43-1-3"
           width="10"
           height="12.727922"
           x="134"
           y="63.63961"
           transform="matrix(0,1,0.70710678,-0.70710678,0,0)" />
        <rect
           style="display:inline;fill:#eab678;fill-opacity:1;stroke-width:1.18921"
           id="rect43-8-1-1"
           width="10"
           height="12.727922"
           x="80"
           y="63.63961"
           transform="matrix(0,1,0.70710678,0.70710678,0,0)" />
        <rect
           style="fill:#eab678;fill-opacity:1"
           id="rect44"
           width="5"
           height="26"
           x="189"
           y="99" />
        <rect
           style="fill:#eab678;fill-opacity:1"
           id="rect45"
           width="5"
           height="26"
           x="202"
           y="99" />
        <rect
           style="fill:#eab678;fill-opacity:1"
           id="rect46"
           width="5"
           height="26"
           x="17"
           y="99" />
        <rect
           style="fill:#eab678;fill-opacity:1"
           id="rect47"
           width="5"
           height="26"
           x="30"
           y="99" />
        <rect
           style="fill:#eab678;fill-opacity:1"
           id="rect48"
           width="26"
           height="5"
           x="99"
           y="189" />
        <rect
           style="fill:#eab678;fill-opacity:1"
           id="rect49"
           width="26"
           height="5"
           x="99"
           y="202" />
        <path
           style="fill:#eab678;fill-opacity:1"
           d="M 5,130 V 94 l 5,5 h 1 v 26 h -1 z"
           id="path53" />
        <path
           style="fill:#eab678;fill-opacity:1"
           d="m 94,5 h 36 l -5,5 v 1 H 99 v -1 z"
           id="path54" />
        <path
           style="display:inline;fill:#eab678;fill-opacity:1;stroke-width:1"
           d="m 219,94 v 36 l -5,-5 h -1 V 99 h 1 z"
           id="path53-9" />
        <path
           style="display:inline;fill:#eab678;fill-opacity:1;stroke-width:1"
           d="M 130,219 H 94 l 5,-5 v -1 h 26 v 1 z"
           id="path54-2" />
      </g>
      <g
         inkscape:groupmode="layer"
         id="layer6"
         inkscape:label="highlightLight"
         style="display:inline;fill:#ffd37f;fill-opacity:1">
        <path
           style="fill:#ffd37f;fill-opacity:1"
           d="M 89,45 99,35 h 26 l 10,10 h -15 l -8,-8 -8,8 z"
           id="path29" />
        <path
           style="fill:#ffd37f;fill-opacity:1"
           d="m 25,11 h 9 l 6,6 h -9 z"
           id="path30" />
        <path
           style="fill:#ffd37f;fill-opacity:1"
           d="m 54,11 h 9 l -6,6 h -9 z"
           id="path31" />
        <path
           style="display:inline;fill:#ffd37f;fill-opacity:1"
           d="m 161,11 h 9 l 6,6 h -9 z"
           id="path30-1" />
        <path
           style="display:inline;fill:#ffd37f;fill-opacity:1"
           d="m 190,11 h 9 l -6,6 h -9 z"
           id="path31-4" />
        <path
           style="display:inline;fill:#ffd37f;fill-opacity:1"
           d="m 213,25 v 9 l -6,6 v -9 z"
           id="path30-8" />
        <path
           style="display:inline;fill:#ffd37f;fill-opacity:1"
           d="m 213,54 v 9 l -6,-6 v -9 z"
           id="path31-0" />
        <path
           style="display:inline;fill:#ffd37f;fill-opacity:1"
           d="m 213,161 v 9 l -6,6 v -9 z"
           id="path30-1-4" />
        <path
           style="display:inline;fill:#ffd37f;fill-opacity:1"
           d="m 213,190 v 9 l -6,-6 v -9 z"
           id="path31-4-7" />
        <path
           style="fill:#ffd37f;fill-opacity:1"
           d="m 80,54 h 10 l 11,11 H 91 Z"
           id="path32" />
        <path
           style="fill:#ffd37f;fill-opacity:1"
           d="m 123,65 11,-11 h 10 l -11,11 z"
           id="path33" />
        <path
           style="fill:#ffd37f;fill-opacity:1"
           d="m 108,54 h 8 l -4,4 z"
           id="path34" />
        <path
           style="display:inline;fill:#ffd37f;fill-opacity:1"
           d="m 170,80 v 10 l -11,11 V 91 Z"
           id="path32-8" />
        <path
           style="display:inline;fill:#ffd37f;fill-opacity:1"
           d="m 159,123 11,11 v 10 l -11,-11 z"
           id="path33-1" />
        <path
           style="display:inline;fill:#ffd37f;fill-opacity:1"
           d="m 170,108 v 8 l -4,-4 z"
           id="path34-0" />
        <rect
           style="fill:#ffd37f;fill-opacity:1"
           id="rect34"
           width="26"
           height="8"
           x="99"
           y="194" />
        <rect
           style="fill:#ffd37f;fill-opacity:1"
           id="rect35"
           width="8"
           height="26"
           x="22"
           y="99" />
        <rect
           style="fill:#ffd37f;fill-opacity:1"
           id="rect36"
           width="36"
           height="5"
           x="94"
           y="0" />
        <rect
           style="fill:#ffd37f;fill-opacity:1"
           id="rect37"
           width="26"
           height="6"
           x="99"
           y="11" />
        <rect
           style="fill:#ffd37f;fill-opacity:1"
           id="rect38"
           width="6"
           height="26"
           x="207"
           y="99" />
        <rect
           style="fill:#ffd37f;fill-opacity:1"
           id="rect39"
           width="5"
           height="36.5"
           x="219"
           y="94" />
        <path
           style="fill:#ffd37f;fill-opacity:1"
           d="m 74,121 v -18 l 9,9 z"
           id="path39" />
        <path
           style="fill:#ffd37f;fill-opacity:1"
           d="m 103,150 9,-9 9,9 z"
           id="path40" />
        <path
           style="fill:#ffd37f;fill-opacity:1"
           d="M 179,104 V 89 l 10,10 v 26 l -10,10 v -15 l 8,-8 z"
           id="path41" />
      </g>
    </g>
    <g
       inkscape:groupmode="layer"
       id="layer3"
       inkscape:label="gray"
       inkscape:highlight-color="#989aa4">
      <g
         inkscape:groupmode="layer"
         id="layer2"
         inkscape:label="grayDark"
         style="display:inline;fill:#6e7080;fill-opacity:1"
         transform="rotate(180,112,112)">
        <path
           style="display:inline;fill:#6e7080;fill-opacity:1"
           d="M 6,6 12,0 H 70 L 77,7 67,17 H 57 L 69,5 H 19 l 12,12 h -8 l -3,3 z"
           id="path2" />
        <path
           style="display:inline;fill:#6e7080;fill-opacity:1"
           d="m 94,0 h -6 l -7,7 10,10 h 8 V 11 H 95 L 89,5 h 5 z"
           id="path3" />
        <path
           style="display:inline;fill:#6e7080;fill-opacity:1"
           d="M 224,12 212,0 h -58 l -7,7 10,10 h 10 L 155,5 h 50 l -12,12 h 8 l 6,6 v 8 L 219,19 V 69 L 207,57 v 10 l 10,10 7,-7 z"
           id="path2-3"
           sodipodi:nodetypes="ccccccccccccccccccc" />
        <path
           style="display:inline;fill:#6e7080;fill-opacity:1"
           d="m 130,0 h 6 l 7,7 -10,10 h -8 v -6 h 4 l 6,-6 h -5 z"
           id="path3-7" />
        <path
           style="display:inline;fill:#6e7080;fill-opacity:1"
           d="m 218,218 6,-6 v -58 l -7,-7 -10,10 v 10 l 12,-12 v 50 l -12,-12 v 8 l -3,3 z"
           id="path2-5" />
        <path
           style="display:inline;fill:#6e7080;fill-opacity:1"
           d="m 224,130 v 6 l -7,7 -10,-10 v -8 h 6 v 4 l 6,6 v -5 z"
           id="path3-5" />
        <path
           style="display:inline;fill:#6e7080;fill-opacity:1"
           d="m 224,94 v -6 l -7,-7 -10,10 v 8 h 6 v -4 l 6,-6 v 5 z"
           id="path3-7-3" />
        <path
           style="display:inline;fill:#6e7080;fill-opacity:1"
           d="m 34,11 6,6 h 8 l 6,-6 z"
           id="path4"
           sodipodi:nodetypes="ccccc" />
        <path
           style="display:inline;fill:#6e7080;fill-opacity:1"
           d="m 170,11 6,6 h 8 l 6,-6 z"
           id="path4-0"
           sodipodi:nodetypes="ccccc" />
        <path
           style="display:inline;fill:#6e7080;fill-opacity:1"
           d="m 213,34 -6,6 v 8 l 6,6 z"
           id="path4-1"
           sodipodi:nodetypes="ccccc" />
        <path
           style="display:inline;fill:#6e7080;fill-opacity:1"
           d="m 213,170 -6,6 v 8 l 6,6 z"
           id="path4-0-5"
           sodipodi:nodetypes="ccccc" />
        <path
           style="display:inline;fill:#6e7080;fill-opacity:1"
           d="m 22,30 v -8 l 4,4 z"
           id="path5"
           sodipodi:nodetypes="cccc" />
        <path
           style="display:inline;fill:#6e7080;fill-opacity:1"
           d="m 22,202 v -8 l 8,8 z"
           id="path5-25"
           sodipodi:nodetypes="cccc" />
        <path
           style="display:inline;fill:#6e7080;fill-opacity:1"
           d="m 198,198 4,4 h -8 z"
           id="path5-2"
           sodipodi:nodetypes="cccc" />
        <path
           style="display:inline;opacity:1;fill:#6e7080;fill-opacity:1"
           d="m 61.5,61.5 -8,-8 L 72,35 H 99 L 89,45 H 78 Z"
           id="path6" />
        <path
           style="display:inline;fill:#6e7080;fill-opacity:1"
           d="m 162.5,162.5 8,8 L 189,152 v -27 l -10,10 v 11 z"
           id="path6-5" />
        <path
           style="display:inline;fill:#6e7080;fill-opacity:1"
           d="M 135,45 125,35 h 27 l 37,37 V 99 L 179,89 V 78 L 146,45 Z"
           id="path7"
           sodipodi:nodetypes="ccccccccc" />
        <path
           style="display:inline;fill:#6e7080;fill-opacity:1"
           d="m 104,45 8,-8 8,8 z"
           id="path8" />
        <path
           style="display:inline;fill:#6e7080;fill-opacity:1;stroke-width:1"
           d="m 179,120 v -16 l 8,8 z"
           id="path8-8" />
        <path
           style="display:inline;fill:#6e7080;fill-opacity:1"
           d="m 155,219 6,-6 h 38 l 6,6 z"
           id="path9"
           sodipodi:nodetypes="ccccc" />
        <path
           style="display:inline;fill:#6e7080;fill-opacity:1"
           d="m 19,219 6,-6 h 38 l 6,6 z"
           id="path9-0"
           sodipodi:nodetypes="ccccc" />
        <path
           style="display:inline;fill:#6e7080;fill-opacity:1"
           d="m 5,155 6,6 v 38 l -6,6 z"
           id="path9-2"
           sodipodi:nodetypes="ccccc" />
        <path
           style="display:inline;fill:#6e7080;fill-opacity:1"
           d="m 5,19 6,6 v 38 l -6,6 z"
           id="path9-0-6"
           sodipodi:nodetypes="ccccc" />
        <path
           style="fill:#6e7080;fill-opacity:1"
           d="m 67,67 8,8 10,-10 H 91 L 80,54 Z"
           id="path10"
           sodipodi:nodetypes="cccccc" />
        <path
           style="fill:#6e7080;fill-opacity:1"
           d="m 90,54 11,11 h 22 l 11,-11 h -18 l -4,4 -4,-4 z"
           id="path11"
           sodipodi:nodetypes="cccccccc" />
        <path
           style="display:inline;fill:#6e7080;fill-opacity:1"
           d="m 157,157 -8,-8 10,-10 V 133 l 11,11 z"
           id="path10-2"
           sodipodi:nodetypes="cccccc" />
        <path
           style="display:inline;fill:#6e7080;fill-opacity:1"
           d="m 170,134 -11,-11 v -22 l 11,-11 v 18 l -4,4 4,4 z"
           id="path11-9"
           sodipodi:nodetypes="cccccccc" />
        <path
           style="display:inline;opacity:1;fill:#6e7080;fill-opacity:1"
           d="m 133,65 11,-11 26,26 -11,11 V 85 L 139,65 Z"
           id="path12"
           sodipodi:nodetypes="ccccccc" />
        <path
           style="fill:#6e7080;fill-opacity:1"
           d="m 54,116 -9,9 V 99 l 9,9 z"
           id="path13" />
        <path
           style="display:inline;fill:#6e7080;fill-opacity:1;stroke-width:1"
           d="m 74,116 -9,9 V 99 l 9,9 z"
           id="path13-6" />
        <path
           style="display:inline;fill:#6e7080;fill-opacity:1"
           d="m 116,170 9,9 H 99 l 9,-9 z"
           id="path13-5" />
        <path
           style="display:inline;fill:#6e7080;fill-opacity:1;stroke-width:1"
           d="m 116,150 9,9 H 99 l 9,-9 z"
           id="path13-6-4" />
        <path
           style="fill:#6e7080;fill-opacity:1"
           d="m 29,29 6,6 -5,5 V 99 H 22 V 36 Z"
           id="path14" />
        <path
           style="display:inline;fill:#6e7080;fill-opacity:1"
           d="m 195,195 -6,-6 -5,5 h -59 v 8 h 63 z"
           id="path14-9" />
        <path
           style="fill:#6e7080;fill-opacity:1"
           d="m 22,125 h 8 v 59 l 10,10 h 59 v 8 H 36 L 22,188 Z"
           id="path15" />
        <path
           style="fill:#6e7080;fill-opacity:1"
           d="m 132,104 v 16 l -12,12 H 104 L 92,120 v -16 l 12,-12 h 16 z"
           id="path18" />
      </g>
      <g
         inkscape:groupmode="layer"
         id="layer4"
         inkscape:label="grayMid">
        <path
           d="M 85,65 65,85 v 14 l 9,9 v -5 l 9,9 -9,9 v -5 l -9,9 v 14 l 20,20 h 14 l 9,-9 h -5 l 9,-9 9,9 h -5 l 9,9 h 14 l 20,-20 v -14 l -9,-9 v 5 l -9,-9 9,-9 v 5 l 9,-9 V 85 L 139,65 h -14 l -9,9 h 5 l -9,9 -9,-9 h 5 l -9,-9 z m 19,27 h 16 l 12,12 v 16 l -12,12 H 104 L 92,120 v -16 z"
           style="display:inline;fill:#989aa4"
           id="path17" />
        <path
           style="fill:#989aa4;fill-opacity:1"
           d="m 125,35 v -5 h 59 l 10,10 v 59 h -5 V 72 L 152,35 Z m 25.53641,6.432038"
           id="path19"
           sodipodi:nodetypes="ccccccccc" />
        <path
           style="display:inline;fill:#989aa4;fill-opacity:1"
           d="m 189,125 h 5 v 59 l -10,10 h -59 v -5 h 27 l 37,-37 z m -6.43204,25.53641"
           id="path19-9"
           sodipodi:nodetypes="ccccccccc" />
        <path
           style="display:inline;fill:#989aa4;fill-opacity:1"
           d="m 99,189 v 5 H 40 L 30,184 v -59 h 5 v 27 l 37,37 z m -25.53641,-6.43204"
           id="path19-1"
           sodipodi:nodetypes="ccccccccc" />
        <path
           style="display:inline;fill:#989aa4;fill-opacity:1"
           d="M 35,99 H 30 V 40 L 40,30 h 59 v 5 H 72 L 35,72 Z m 6.43204,-25.53641"
           id="path19-9-8"
           sodipodi:nodetypes="ccccccccc" />
        <path
           d="M 77,7 67,17 H 23 l -6,6 V 67 L 7,77 v 4 l 10,10 v 8 h 5 V 36 L 36,22 H 99 V 17 H 91 L 81,7 Z M 22,22 h 8 l -8,8 z"
           style="fill:#989aa4"
           id="path22" />
        <path
           d="M 217,77 207,67 V 23 l -6,-6 H 157 L 147,7 h -4 l -10,10 h -8 v 5 h 63 l 14,14 v 63 h 5 V 91 L 217,81 Z M 202,22 v 8 l -8,-8 z"
           style="display:inline;fill:#989aa4"
           id="path22-5" />
        <path
           d="m 147,217 10,-10 h 44 l 6,-6 v -44 l 10,-10 v -4 l -10,-10 v -8 h -5 v 63 l -14,14 h -63 v 5 h 8 l 10,10 z m 55,-15 h -8 l 8,-8 z"
           style="display:inline;fill:#989aa4"
           id="path22-1" />
        <path
           d="m 7,147 10,10 v 44 l 6,6 h 44 l 10,10 h 4 l 10,-10 h 8 v -5 H 36 L 22,188 v -63 h -5 v 8 L 7,143 Z m 15,55 v -8 l 8,8 z"
           style="display:inline;fill:#989aa4"
           id="path22-5-4" />
        <path
           style="display:inline;fill:#989aa4;fill-opacity:1"
           d="m 130,5 h 5 l -6,6 h -4 v -1 z"
           id="path23-65"
           sodipodi:nodetypes="cccccc" />
        <path
           style="display:inline;fill:#989aa4;fill-opacity:1"
           d="m 89,5 h 5 l 5,5 v 1 h -4 z"
           id="path23-6-6"
           sodipodi:nodetypes="cccccc" />
        <path
           style="display:inline;fill:#989aa4;fill-opacity:1"
           d="M 130.1875,219 H 135 l -6,-6 h -4 v 1 z"
           id="path23-65-5"
           sodipodi:nodetypes="cccccc" />
        <path
           style="display:inline;fill:#989aa4;fill-opacity:1"
           d="m 89,219 h 5 l 5,-5 v -1 h -4 z"
           id="path23-6-6-4"
           sodipodi:nodetypes="cccccc" />
        <path
           style="display:inline;fill:#989aa4;fill-opacity:1"
           d="M 219,130.1875 V 135 l -6,-6 v -4 h 1 z"
           id="path23-65-1"
           sodipodi:nodetypes="cccccc" />
        <path
           style="display:inline;fill:#989aa4;fill-opacity:1"
           d="m 219,89 v 5 l -5,5 h -1 v -4 z"
           id="path23-6-6-3"
           sodipodi:nodetypes="cccccc" />
        <path
           style="display:inline;fill:#989aa4;fill-opacity:1"
           d="M 5,130.1875 V 135 l 6,-6 v -4 h -1 z"
           id="path23-65-5-6"
           sodipodi:nodetypes="cccccc" />
        <path
           style="display:inline;fill:#989aa4;fill-opacity:1"
           d="m 5,89 v 5 l 5,5 h 1 v -4 z"
           id="path23-6-6-4-9"
           sodipodi:nodetypes="cccccc" />
        <path
           style="fill:#989aa4;fill-opacity:1"
           d="m 45,99 9,-9 v 18 z"
           id="path24" />
        <path
           style="fill:#989aa4;fill-opacity:1"
           d="m 45,125 9,-9 v 18 z"
           id="path25" />
        <path
           style="fill:#989aa4;fill-opacity:1"
           d="M 45,89 89,45 H 78 L 45,78 Z"
           id="path26" />
        <path
           style="display:inline;fill:#989aa4;fill-opacity:1"
           d="m 179,125 -9,9 v -18 z"
           id="path24-0" />
        <path
           style="display:inline;fill:#989aa4;fill-opacity:1"
           d="m 179,99 -9,9 V 90 Z"
           id="path25-2" />
        <path
           style="display:inline;fill:#989aa4;fill-opacity:1"
           d="m 179,135 -44,44 h 11 l 33,-33 z"
           id="path26-8" />
        <path
           style="display:inline;fill:#989aa4;fill-opacity:1"
           d="m 125,45 9,9 h -18 z"
           id="path24-7" />
        <path
           style="display:inline;fill:#989aa4;fill-opacity:1"
           d="m 99,45 9,9 H 90 Z"
           id="path25-5" />
        <path
           style="display:inline;fill:#989aa4;fill-opacity:1"
           d="m 135,45 44,44 V 78 L 146,45 Z"
           id="path26-3" />
        <path
           style="display:inline;fill:#989aa4;fill-opacity:1"
           d="m 99,179 -9,-9 h 18 z"
           id="path24-0-5" />
        <path
           style="display:inline;fill:#989aa4;fill-opacity:1"
           d="m 125,179 -9,-9 h 18 z"
           id="path25-2-4" />
        <path
           style="display:inline;fill:#989aa4;fill-opacity:1"
           d="M 89,179 45,135 v 11 l 33,33 z"
           id="path26-8-8" />
      </g>
      <g
         inkscape:groupmode="layer"
         id="layer2-5"
         inkscape:label="grayLight"
         style="display:inline">
        <path
           style="display:inline;fill:#b0bac0;fill-opacity:1"
           d="M 6,6 12,0 H 70 L 77,7 67,17 H 57 L 69,5 H 19 l 12,12 h -8 l -3,3 z"
           id="path2-2" />
        <path
           style="display:inline;fill:#b0bac0;fill-opacity:1"
           d="m 94,0 h -6 l -7,7 10,10 h 8 V 11 H 95 L 89,5 h 5 z"
           id="path3-9"
           sodipodi:nodetypes="cccccccccc" />
        <path
           style="display:inline;fill:#b0bac0;fill-opacity:1"
           d="M 224,12 212,0 h -58 l -7,7 10,10 h 10 L 155,5 h 50 l -12,12 h 8 l 6,6 v 8 L 219,19 V 69 L 207,57 v 10 l 10,10 7,-7 z"
           id="path2-3-4"
           sodipodi:nodetypes="ccccccccccccccccccc" />
        <path
           style="display:inline;fill:#b0bac0;fill-opacity:1"
           d="m 130,0 h 6 l 7,7 -10,10 h -8 v -6 h 4 l 6,-6 h -5 z"
           id="path3-7-4"
           sodipodi:nodetypes="cccccccccc" />
        <path
           style="display:inline;fill:#b0bac0;fill-opacity:1"
           d="m 218,218 6,-6 v -58 l -7,-7 -10,10 v 10 l 12,-12 v 50 l -12,-12 v 8 l -3,3 z"
           id="path2-5-4" />
        <path
           style="display:inline;fill:#b0bac0;fill-opacity:1"
           d="m 224,130 v 6 l -7,7 -10,-10 v -8 h 6 v 4 l 6,6 v -5 z"
           id="path3-5-5" />
        <path
           style="display:inline;fill:#b0bac0;fill-opacity:1"
           d="m 224,94 v -6 l -7,-7 -10,10 v 8 h 6 v -4 l 6,-6 v 5 z"
           id="path3-7-3-4" />
        <path
           style="display:inline;fill:#b0bac0;fill-opacity:1"
           d="m 34,11 6,6 h 8 l 6,-6 z"
           id="path4-6"
           sodipodi:nodetypes="ccccc" />
        <path
           style="display:inline;fill:#b0bac0;fill-opacity:1"
           d="m 170,11 6,6 h 8 l 6,-6 z"
           id="path4-0-1"
           sodipodi:nodetypes="ccccc" />
        <path
           style="display:inline;fill:#b0bac0;fill-opacity:1"
           d="m 213,34 -6,6 v 8 l 6,6 z"
           id="path4-1-6"
           sodipodi:nodetypes="ccccc" />
        <path
           style="display:inline;fill:#b0bac0;fill-opacity:1"
           d="m 213,170 -6,6 v 8 l 6,6 z"
           id="path4-0-5-6"
           sodipodi:nodetypes="ccccc" />
        <path
           style="display:inline;fill:#b0bac0;fill-opacity:1"
           d="m 22,30 v -8 l 4,4 z"
           id="path5-26"
           sodipodi:nodetypes="cccc" />
        <path
           style="display:inline;fill:#b0bac0;fill-opacity:1"
           d="m 22,202 v -8 l 8,8 z"
           id="path5-25-8"
           sodipodi:nodetypes="cccc" />
        <path
           style="display:inline;fill:#b0bac0;fill-opacity:1"
           d="m 198,198 4,4 h -8 z"
           id="path5-2-6"
           sodipodi:nodetypes="cccc" />
        <path
           style="display:inline;opacity:1;fill:#b0bac0;fill-opacity:1"
           d="m 61.5,61.5 -8,-8 L 72,35 H 99 L 89,45 H 78 Z"
           id="path6-8" />
        <path
           style="display:inline;fill:#b0bac0;fill-opacity:1"
           d="m 162.5,162.5 8,8 L 189,152 v -27 l -10,10 v 11 z"
           id="path6-5-5" />
        <path
           style="display:inline;fill:#b0bac0;fill-opacity:1"
           d="M 135,45 125,35 h 27 l 37,37 V 99 L 179,89 V 78 L 146,45 Z"
           id="path7-5"
           sodipodi:nodetypes="ccccccccc" />
        <path
           style="display:inline;fill:#b0bac0;fill-opacity:1"
           d="m 104,45 8,-8 8,8 z"
           id="path8-0" />
        <path
           style="display:inline;fill:#b0bac0;fill-opacity:1;stroke-width:1"
           d="m 179,120 v -16 l 8,8 z"
           id="path8-8-6" />
        <path
           style="display:inline;fill:#b0bac0;fill-opacity:1"
           d="m 155,219 6,-6 h 38 l 6,6 z"
           id="path9-1"
           sodipodi:nodetypes="ccccc" />
        <path
           style="display:inline;fill:#b0bac0;fill-opacity:1"
           d="m 19,219 6,-6 h 38 l 6,6 z"
           id="path9-0-8"
           sodipodi:nodetypes="ccccc" />
        <path
           style="display:inline;fill:#b0bac0;fill-opacity:1"
           d="m 5,155 6,6 v 38 l -6,6 z"
           id="path9-2-5"
           sodipodi:nodetypes="ccccc" />
        <path
           style="display:inline;fill:#b0bac0;fill-opacity:1"
           d="m 5,19 6,6 v 38 l -6,6 z"
           id="path9-0-6-9"
           sodipodi:nodetypes="ccccc" />
        <path
           style="fill:#b0bac0;fill-opacity:1"
           d="m 67,67 8,8 10,-10 H 91 L 80,54 Z"
           id="path10-8"
           sodipodi:nodetypes="cccccc" />
        <path
           style="fill:#b0bac0;fill-opacity:1"
           d="m 90,54 11,11 h 22 l 11,-11 h -18 l -4,4 -4,-4 z"
           id="path11-6"
           sodipodi:nodetypes="cccccccc" />
        <path
           style="display:inline;fill:#b0bac0;fill-opacity:1"
           d="m 157,157 -8,-8 10,-10 V 133 l 11,11 z"
           id="path10-2-1"
           sodipodi:nodetypes="cccccc" />
        <path
           style="display:inline;fill:#b0bac0;fill-opacity:1"
           d="m 170,134 -11,-11 v -22 l 11,-11 v 18 l -4,4 4,4 z"
           id="path11-9-4"
           sodipodi:nodetypes="cccccccc" />
        <path
           style="display:inline;opacity:1;fill:#b0bac0;fill-opacity:1"
           d="M 133,65 144,54 170,80.013864 159,91 V 85 L 139,65 Z"
           id="path12-5"
           sodipodi:nodetypes="ccccccc" />
        <path
           style="fill:#b0bac0;fill-opacity:1"
           d="m 54,116 -9,9 V 99 l 9,9 z"
           id="path13-3" />
        <path
           style="display:inline;fill:#b0bac0;fill-opacity:1;stroke-width:1"
           d="m 74,116 -9,9 V 99 l 9,9 z"
           id="path13-6-6" />
        <path
           style="display:inline;fill:#b0bac0;fill-opacity:1"
           d="m 116,170 9,9 H 99 l 9,-9 z"
           id="path13-5-0" />
        <path
           style="display:inline;fill:#b0bac0;fill-opacity:1;stroke-width:1"
           d="m 116,150 9,9 H 99 l 9,-9 z"
           id="path13-6-4-4" />
        <path
           style="fill:#b0bac0;fill-opacity:1"
           d="m 29,29 6,6 -5,5 V 99 H 22 V 36 Z"
           id="path14-7" />
        <path
           style="display:inline;fill:#b0bac0;fill-opacity:1"
           d="m 195,195 -6,-6 -5,5 h -59 v 8 h 63 z"
           id="path14-9-1" />
        <path
           style="fill:#b0bac0;fill-opacity:1"
           d="m 22,125 h 8 v 59 l 10,10 h 59 v 8 H 36 L 22,188 Z"
           id="path15-2" />
      </g>
    </g>
  </g>
</svg>
